# xmcd
#
# Track frame offsets:
#	150
#	11205
#	26620
#	69715
#	94025
#	116095
#	171715
#
# Disc length: 2578 seconds
#
# Revision: 2
# Processed by: cddbd v1.5.1PL2 Copyright (c) Steve Scherf et al.
# Submitted via: EasyCDDAExtractor 8.0.2.1
#
DISCID=610a1007
DTITLE=Black Sabbath - Kongresshalle Frankfurt 01-10-89 Disc 2
DYEAR=1989
DGENRE=Hard Rock
TTITLE0=The Shining
TTITLE1=The Mob Rules
TTITLE2=Black Sabbath
TTITLE3=Iron Man
TTITLE4=Children Of The Grave
TTITLE5=Heaven and Hell
TTITLE6=Paranoid
EXTD=
EXTT0=
EXTT1=
EXTT2=
EXTT3=
EXTT4=
EXTT5=
EXTT6=
PLAYORDER=
